<svg width="85" height="85" viewBox="0 0 85 85" fill="none" xmlns="http://www.w3.org/2000/svg">
<g clip-path="url(#clip0_1_103)">
<path d="M22.8585 56.7001C27.44 58.9152 29.5428 62.0952 31.9782 65.778C34.7825 70.0204 37.9611 74.829 45.4185 78.6591C50.5378 81.2891 55.7978 81.9986 59.9859 81.9986C61.0833 81.9986 62.1077 81.95 63.0349 81.8743C68.6029 81.4202 73.9696 79.7254 77.7577 77.2238C81.3337 74.8627 83.1906 71.9638 82.9852 69.0595C82.8568 67.2309 81.9108 65.5983 80.335 64.0738C80.2768 64.0116 80.2147 63.9535 80.1485 63.8981C77.0725 61.0276 71.7599 58.5354 65.4634 55.8405L56.8505 33.2329L59.194 29.0297C59.6575 28.1986 59.4805 27.1579 58.7683 26.5268C58.4345 26.2308 55.4031 23.6616 51.8015 24.6022C49.5945 25.1793 47.8228 26.9025 46.5213 29.7325C42.7737 28.7486 38.6936 27.0457 36.5259 24.1171C35.0055 22.0614 34.6365 19.6261 35.4014 16.669C35.5663 16.0311 35.4109 15.3527 34.9838 14.8499C34.5568 14.3472 33.9121 14.0836 33.2567 14.1417C22.0544 15.1445 14.2429 25.1091 12.2603 27.9026C10.3655 28.3932 5.9949 29.9352 3.94743 34.0316C2.85004 36.2264 2.70137 38.5361 3.50685 40.8985C5.27727 46.0936 11.6062 51.2604 22.8544 56.6987L22.8585 56.7001ZM52.8151 28.5297C53.4597 28.3553 54.1395 28.5094 54.7112 28.7473L53.4827 30.9515C52.7691 30.884 51.7839 30.7704 50.6352 30.588C51.2879 29.4446 52.0258 28.7419 52.8151 28.5283V28.5297ZM30.9889 18.6314C30.7997 21.579 31.5646 24.2292 33.2742 26.5362C38.1219 33.0761 49.2918 34.6465 53.1867 35.0006L53.9868 37.0995C52.7056 37.4563 50.6973 37.7509 48.1363 37.2711C47.0349 37.0657 45.9767 37.7901 45.7699 38.8902C45.5631 39.9903 46.2888 41.0499 47.3889 41.2566C48.589 41.481 49.7067 41.5729 50.7298 41.5729C52.6664 41.5729 54.2611 41.2472 55.4288 40.8904L56.3829 43.3933C55.099 43.7488 53.0813 44.0461 50.5338 43.569C49.4324 43.3636 48.3742 44.088 48.1674 45.1881C47.9606 46.2882 48.6863 47.3478 49.7864 47.5546C50.9865 47.7789 52.1042 47.8708 53.1273 47.8708C55.0639 47.8708 56.6586 47.5451 57.8263 47.1883L58.7818 49.6953C57.5006 50.0521 55.4923 50.3467 52.9313 49.867C51.8298 49.6615 50.7717 50.3859 50.5649 51.4861C50.3581 52.5862 51.0838 53.6457 52.1839 53.8525C53.384 54.0769 54.5017 54.1688 55.5248 54.1688C57.4614 54.1688 59.0561 53.843 60.2238 53.4863L60.9833 55.4811C59.1629 55.8811 57.2763 56.8393 55.3437 58.3489C54.2382 59.2125 53.3205 60.1045 52.6826 60.7775C51.5352 59.9234 49.0148 57.0907 46.3537 47.8762C43.667 38.5753 37.257 36.6197 32.5755 35.1912C28.0157 33.8005 25.7263 33.1018 26.4318 27.3944C26.5696 26.2835 25.7804 25.2712 24.6694 25.1334C23.5599 24.9955 22.5463 25.7848 22.4084 26.8957C21.9111 30.9123 22.6598 33.8343 24.6978 35.8277C26.475 37.5684 28.8644 38.2969 31.393 39.0672C35.8123 40.4147 40.3816 41.8094 42.4588 48.9993C44.3765 55.6378 46.5848 60.3153 49.0202 62.9034C50.9041 64.905 52.4988 65.1807 53.2313 65.1807C53.3543 65.1807 53.4516 65.1726 53.5246 65.1645C54.0503 65.1009 54.5314 64.832 54.8639 64.4198C56.1126 62.8683 60.0197 59.0071 63.3416 59.345C67.4636 61.1005 71.3977 62.8318 74.375 64.6522C74.9588 65.009 75.471 65.3496 75.9197 65.6713C72.3356 68.7892 65.3688 69.9352 59.9968 69.9352C56.6181 69.9352 53.4813 69.2419 50.9257 67.9283C46.278 65.5415 44.4995 62.8507 42.0371 59.126C39.3801 55.1067 35.7407 49.6007 28.117 45.8449C18.477 41.0958 15.5944 36.963 14.874 34.3343C14.2915 32.2098 15.1159 30.911 15.1511 30.8569C15.1362 30.8813 15.1267 30.8921 15.1267 30.8921H15.124C15.1443 30.8623 15.1659 30.8353 15.1862 30.8056C15.2551 30.6988 21.5989 20.9938 30.9848 18.6314H30.9889ZM7.57746 35.8466C8.26941 34.4627 9.46005 33.5153 10.6156 32.8801C10.6183 33.5775 10.7021 34.3438 10.9088 35.1749C12.1765 40.2511 17.3648 45.0651 26.3304 49.4818C32.9674 52.7524 36.1245 57.5259 38.6598 61.3614C41.2506 65.2793 43.4873 68.6635 49.0783 71.534C52.2042 73.1396 55.9816 73.9883 60.0022 73.9883C63.216 73.9883 73.2222 73.564 78.7402 68.5959C78.8673 68.8811 78.9267 69.1311 78.9416 69.3446C79.0362 70.6853 77.7591 72.3652 75.5251 73.8397C71.7329 76.3426 66.0229 77.9495 60.0846 77.9495C55.7126 77.9495 51.2149 77.0778 47.2714 75.052C40.7586 71.707 38.0138 67.5566 35.3609 63.5413C32.8282 59.7099 30.2091 55.7473 24.6235 53.0484C12.0684 46.9802 8.29915 42.3811 7.34906 39.5916C6.90038 38.2766 6.97606 37.0508 7.57881 35.8453L7.57746 35.8466Z" fill="#FF3103"/>
<path d="M44.2561 2.4352C43.3763 1.74189 42.1019 1.89325 41.4086 2.77307L35.9406 9.71296C35.2473 10.5928 35.3986 11.8672 36.2784 12.5605C36.6501 12.8538 37.092 12.9957 37.5312 12.9957C38.1313 12.9957 38.7246 12.7308 39.1246 12.2227L44.5926 5.28278C45.2859 4.40297 45.1346 3.12851 44.2548 2.4352H44.2561Z" fill="#FF3103"/>
<path d="M73.1734 2.77296L59.0182 20.7396C58.3249 21.6195 58.4763 22.8939 59.3561 23.5872C59.7277 23.8805 60.1696 24.0224 60.6089 24.0224C61.2089 24.0224 61.8022 23.7575 62.2023 23.2494L76.3589 5.28132C77.0522 4.4015 76.9008 3.12705 76.021 2.43373C75.1412 1.74042 73.8667 1.89179 73.1734 2.77161V2.77296Z" fill="#FF3103"/>
</g>
<defs>
<clipPath id="clip0_1_103">
<rect width="80" height="80" fill="white" transform="translate(3 2)"/>
</clipPath>
</defs>
</svg>
