<svg width="85" height="85" viewBox="0 0 85 85" fill="none" xmlns="http://www.w3.org/2000/svg">
<g clip-path="url(#clip0_1_78)">
<g clip-path="url(#clip1_1_78)">
<path d="M71.4221 44.9772C68.5015 34.1533 65.9806 24.807 73.7877 1.88787C74.1759 0.750269 73.5763 -0.490486 72.4503 -0.882762C71.3229 -1.27504 70.0963 -0.66919 69.708 0.468411C65.9591 11.4739 64.2291 20.2435 64.2622 28.0672C64.2881 34.1243 65.3537 38.9187 66.6206 43.7321C63.5705 45.0223 60.2875 46.048 56.8348 46.7977C56.9369 46.7003 57.039 46.603 57.1411 46.5057C58.8351 44.8944 60.5866 43.228 61.4034 41.162C61.8449 40.0447 61.3071 38.7764 60.2012 38.3289C59.094 37.8828 57.84 38.4262 57.3971 39.5435C56.9341 40.7145 55.5363 42.0439 54.1831 43.3311C52.712 44.7302 51.2064 46.1671 50.335 47.8554C47.7796 48.1401 45.1595 48.2854 42.4963 48.2854C39.8331 48.2854 37.2145 48.1401 34.662 47.8554C33.792 46.1657 32.2849 44.7288 30.8138 43.3297C29.4621 42.0439 28.0629 40.713 27.5999 39.542C27.1584 38.4248 25.903 37.8799 24.7957 38.3274C23.6899 38.7735 23.1506 40.0418 23.5935 41.1605C24.4103 43.2265 26.1618 44.893 27.8558 46.5042C27.9579 46.6015 28.06 46.6989 28.1621 46.7962C24.708 46.048 21.4264 45.0208 18.3764 43.7307C19.6433 38.9173 20.7089 34.1228 20.7347 28.0658C20.7678 20.242 19.0379 11.4725 15.289 0.466958C14.905 -0.667737 13.6769 -1.27213 12.551 -0.881309C11.4236 -0.489033 10.8253 0.750269 11.2122 1.88932C19.0192 24.807 16.4983 34.1548 13.5777 44.9772C11.7428 51.7796 9.72238 59.2706 10.0316 70.7875C10.0287 70.8675 10.0316 70.9459 10.0373 71.0244C10.1437 74.6319 10.4773 78.6331 11.1173 83.1297C11.2711 84.2165 12.1943 84.9996 13.2498 84.9996C13.3519 84.9996 13.4555 84.9923 13.559 84.9778C14.7382 84.8063 15.5564 83.7021 15.3882 82.5108C14.941 79.3653 14.6476 76.4872 14.4794 73.8299C18.8207 75.0764 27.3223 77.1889 36.2596 77.6044C35.7017 79.1924 35.2113 80.7572 34.9855 82.5428C34.8345 83.737 35.67 84.8281 36.8521 84.9807C36.9456 84.9923 37.0376 84.9981 37.1282 84.9981C38.1981 84.9981 39.1256 84.1947 39.2651 83.0948C39.4779 81.4168 40.0301 79.8767 40.6715 78.0926C40.8958 77.4693 41.1259 76.8242 41.3517 76.1487V76.1428C41.7845 74.8512 42.1972 73.4434 42.5021 71.8365C42.8069 73.4434 43.2182 74.8512 43.6496 76.1428V76.1458C43.8768 76.8213 44.1083 77.4679 44.3327 78.0911C44.974 79.8753 45.5262 81.4153 45.7391 83.0934C45.8785 84.1932 46.8061 84.9967 47.876 84.9967C47.9666 84.9967 48.06 84.9909 48.1521 84.9792C49.3341 84.8267 50.1696 83.7356 50.0186 82.5413C49.7928 80.7557 49.3025 79.191 48.7445 77.603C57.6804 77.1875 66.182 75.075 70.5234 73.8284C70.3551 76.4857 70.0617 79.3639 69.6145 82.5093C69.4448 83.7007 70.2645 84.8049 71.4437 84.9763C71.5472 84.9909 71.6508 84.9981 71.7529 84.9981C72.8084 84.9981 73.7316 84.215 73.8854 83.1283C74.5239 78.6345 74.859 74.6348 74.9654 71.0287C74.9726 70.9474 74.974 70.8645 74.9726 70.7817C75.2803 59.2692 73.2613 51.7781 71.4264 44.9772H71.4221ZM47.2821 73.2952C46.9686 72.2012 46.7025 71.0258 46.5271 69.7081C48.9041 68.6707 50.8297 66.7137 51.8305 64.161C52.2691 63.0423 51.727 61.7754 50.6197 61.3322C49.5124 60.8891 48.2585 61.4368 47.8199 62.5556C46.9585 64.7538 44.8892 66.1747 42.5466 66.1747C40.2041 66.1747 38.1362 64.7538 37.2734 62.5556C36.8348 61.4368 35.5809 60.8891 34.4736 61.3322C33.3663 61.7754 32.8242 63.0423 33.2628 64.161C34.2507 66.6817 36.1403 68.6213 38.477 69.6674C38.3016 71.0011 38.0327 72.1896 37.7163 73.2952C27.7882 73.0264 17.9105 70.3212 14.3054 69.2315C14.2104 60.1859 15.6686 53.8906 17.2418 47.976C21.9844 49.9214 27.2159 51.2798 32.7422 52.012C32.8213 52.0266 32.9018 52.0382 32.9838 52.044C36.0756 52.4421 39.2579 52.647 42.4963 52.647C45.7347 52.647 48.9185 52.4436 52.0103 52.044C52.0937 52.0382 52.1771 52.0266 52.259 52.0106C57.7839 51.2783 63.0154 49.9199 67.7566 47.9745C69.3298 53.8892 70.7865 60.1845 70.693 69.2315C67.0908 70.3212 57.2245 73.0264 47.2821 73.2938V73.2952Z" fill="#FF3103"/>
<path d="M40.3438 39.9579V42.1546C40.3438 43.3576 41.3101 44.3339 42.5008 44.3339C43.6915 44.3339 44.6578 43.3576 44.6578 42.1546V39.9579C44.6578 38.7549 43.6915 37.7786 42.5008 37.7786C41.3101 37.7786 40.3438 38.7549 40.3438 39.9579Z" fill="#FF3103"/>
<path d="M38.135 -0.311225L36.5158 1.43368C35.8514 2.14849 34.9153 2.55966 33.9446 2.55966H21.2339C20.0433 2.55966 19.0769 3.53599 19.0769 4.73897C19.0769 5.94195 20.0433 6.91828 21.2339 6.91828H33.9432C36.1016 6.91828 38.1853 6.00587 39.6622 4.41498L41.2814 2.67007C42.0968 1.79254 42.0522 0.412307 41.1836 -0.41002C40.315 -1.2338 38.9489 -1.18876 38.135 -0.311225Z" fill="#FF3103"/>
<path d="M65.9232 4.73897C65.9232 3.53599 64.9569 2.55966 63.7662 2.55966H51.057C50.0863 2.55966 49.1487 2.14994 48.4858 1.43368L46.8666 -0.311225C46.0512 -1.18876 44.6865 -1.2338 43.818 -0.41002C42.9494 0.413759 42.9048 1.79254 43.7202 2.67007L45.3394 4.41498C46.8162 6.00587 48.8999 6.91828 51.0584 6.91828H63.7676C64.9583 6.91828 65.9247 5.94195 65.9247 4.73897H65.9232Z" fill="#FF3103"/>
<path d="M28.9905 26.4986H34.2364C36.2799 26.4986 38.2269 25.916 39.721 24.8583L40.7665 24.1188C41.7415 23.4287 41.9787 22.0688 41.2942 21.0837C40.6112 20.0987 39.2652 19.859 38.2902 20.5505L37.2448 21.29C36.4812 21.8305 35.384 22.1414 34.2364 22.1414H28.9905C27.7998 22.1414 26.8335 23.1178 26.8335 24.3207C26.8335 25.5237 27.7998 26.5 28.9905 26.5V26.4986Z" fill="#FF3103"/>
<path d="M56.0094 22.1398H50.7635C49.6145 22.1398 48.5187 21.8304 47.7552 21.2884L46.7097 20.5489C45.7347 19.8588 44.3887 20.0971 43.7057 21.0821C43.0226 22.0672 43.2585 23.4271 44.2349 24.1172L45.2803 24.8567C46.7744 25.9144 48.7215 26.497 50.7649 26.497H56.0108C57.2015 26.497 58.1679 25.5207 58.1679 24.3177C58.1679 23.1147 57.2015 22.1384 56.0108 22.1384L56.0094 22.1398Z" fill="#FF3103"/>
<path d="M28.9905 35.3101H34.2364C36.2799 35.3101 38.2269 34.7275 39.721 33.6698L40.7665 32.9303C41.7415 32.2402 41.9787 30.8803 41.2942 29.8953C40.6112 28.9102 39.2652 28.6705 38.2902 29.3621L37.2448 30.1016C36.4812 30.642 35.384 30.9529 34.2364 30.9529H28.9905C27.7998 30.9529 26.8335 31.9293 26.8335 33.1323C26.8335 34.3352 27.7998 35.3116 28.9905 35.3116V35.3101Z" fill="#FF3103"/>
<path d="M56.0094 30.9516H50.7635C49.6145 30.9516 48.5187 30.6421 47.7552 30.1002L46.7097 29.3607C45.7347 28.6706 44.3887 28.9088 43.7057 29.8939C43.0226 30.8789 43.2585 32.2388 44.2349 32.9289L45.2803 33.6685C46.7744 34.7262 48.7215 35.3088 50.7649 35.3088H56.0108C57.2015 35.3088 58.1679 34.3324 58.1679 33.1294C58.1679 31.9265 57.2015 30.9501 56.0108 30.9501L56.0094 30.9516Z" fill="#FF3103"/>
</g>
</g>
<defs>
<clipPath id="clip0_1_78">
<rect width="85" height="85" fill="white"/>
</clipPath>
<clipPath id="clip1_1_78">
<rect width="65" height="86" fill="white" transform="translate(10 -1)"/>
</clipPath>
</defs>
</svg>
